<svg xmlns="http://www.w3.org/2000/svg" width="121.243" height="121.242" viewBox="0 0 32.079 32.079">
  <path d="M97.228 64.851c.401-.401-.39-1.402-1.382-2.393-.99-.991-1.992-1.783-2.393-1.382L81.69 72.841 69.925 61.076c-.402-.401-1.403.391-2.394 1.382-.99.99-1.783 1.992-1.381 2.393l11.764 11.764L66.15 88.38c-.402.401.39 1.402 1.381 2.393.991.99 1.992 1.783 2.394 1.382L81.689 80.39l11.764 11.765c.401.4 1.402-.391 2.393-1.382.991-.991 1.783-1.992 1.382-2.393L85.464 76.615z" style="fill:#fff;fill-opacity:1;stroke:#a9a9a9;stroke-width:.79375;stroke-linecap:square;stroke-linejoin:round;stroke-miterlimit:4;stroke-dasharray:none;stroke-opacity:1" transform="translate(-65.65 -60.576)"/>
  <path d="M81.689 60.576a16.04 16.04 0 0 0-1.084.039l-.744 2.615a13.525 13.525 0 0 0-1.61.313l-1.672-2.11a16.04 16.04 0 0 0-2.014.82l.16 1.378 3.202 3.203a10.502 10.502 0 0 1 3.762-.72 10.502 10.502 0 0 1 3.763.718l3.2-3.2.16-1.366a16.04 16.04 0 0 0-2.01-.837l-1.68 2.122a13.525 13.525 0 0 0-1.605-.32l-.74-2.6a16.04 16.04 0 0 0-1.088-.055zm14.362 8.915-1.378.16-3.203 3.203a10.502 10.502 0 0 1 .72 3.761 10.502 10.502 0 0 1-.718 3.764l3.2 3.2 1.367.159a16.04 16.04 0 0 0 .836-2.01l-2.121-1.68a13.525 13.525 0 0 0 .32-1.605l2.6-.74a16.04 16.04 0 0 0 .054-1.088 16.04 16.04 0 0 0-.038-1.084l-2.616-.743a13.525 13.525 0 0 0-.313-1.611l2.11-1.671a16.04 16.04 0 0 0-.82-2.015zm-28.712.002a16.04 16.04 0 0 0-.837 2.01l2.122 1.68a13.525 13.525 0 0 0-.32 1.605l-2.6.739a16.04 16.04 0 0 0-.055 1.088 16.04 16.04 0 0 0 .04 1.084l2.614.744a13.525 13.525 0 0 0 .314 1.611l-2.11 1.671a16.04 16.04 0 0 0 .82 2.015l1.378-.16 3.202-3.203a10.502 10.502 0 0 1-.72-3.762 10.502 10.502 0 0 1 .718-3.764l-3.2-3.2ZM85.45 86.397a10.502 10.502 0 0 1-3.761.72 10.502 10.502 0 0 1-3.764-.718l-3.2 3.2-.159 1.366a16.04 16.04 0 0 0 2.01.837l1.68-2.122a13.525 13.525 0 0 0 1.605.32l.74 2.6a16.04 16.04 0 0 0 1.088.055 16.04 16.04 0 0 0 1.084-.038L83.517 90a13.525 13.525 0 0 0 1.61-.313l1.671 2.11a16.04 16.04 0 0 0 2.015-.82l-.16-1.379z" style="opacity:1;fill:#00fff1;fill-opacity:1;stroke:none;stroke-width:.267322;stroke-miterlimit:4;stroke-dasharray:none;stroke-opacity:1" transform="translate(-65.65 -60.576)"/>
</svg>
